<svg xmlns="http://www.w3.org/2000/svg" version="1.1" xmlns:xlink="http://www.w3.org/1999/xlink" xmlns:svgjs="http://svgjs.dev/svgjs" width="100%" height="100%" viewBox="0 0 1000 600"><rect width="1000" height="600" x="0" y="0" fill="#f2f2f2"/><g><circle r="166.66666666666666" cx="327.8556467692057" cy="350.0778134975858" fill="#d64b21" transform="matrix(0.775487822794964,0,0,0.775487822794964,0,28.518949211929794)"/><path d="M327.9151588471825 305.101639970392L297.89135395566757 305.101639970392L297.89135395566757 365.14924975342194L327.9151588471825 365.14924975342194Q334.07465103008 365.14924975342194 339.51999919177206 362.7687696827369Q344.96534735346404 360.41804561293543 349.04191947451216 356.3414734918873Q353.1184915955603 352.2649013708392 355.46921566536173 346.7897972082636Q357.81993973516325 341.28493704480445 357.81993973516325 335.125444861907L357.81993973516325 335.125444861907Q357.81993973516325 328.93619667812584 355.46921566536173 323.46109251555026Q353.1184915955603 317.9562323520912 349.04191947451216 313.8796602310431Q344.96534735346404 309.803088109995 339.51999919177206 307.4523640401935Q334.07465103008 305.101639970392 327.9151588471825 305.101639970392L327.9151588471825 305.101639970392ZM297.89135395566757 395.0540306414026L297.89135395566757 425.07783553291756L267.8675490641526 425.07783553291756L267.8675490641526 275.07783507887706L327.9151588471825 275.07783507887706Q336.15757109192947 275.07783507887706 343.8048633190051 277.2202671424936Q351.4521555460808 279.3626992061101 358.0877437431153 283.2904913227404Q364.7233319401498 287.18852743848714 370.228192103609 292.69338760194626Q375.70329626618457 298.1982477654054 379.6310883828148 304.89334796420707Q383.55888049944514 311.5884481630087 385.70131256306166 319.2059843892008Q387.8437446266782 326.8532766162765 387.8437446266782 335.125444861907L387.8437446266782 335.125444861907Q387.8437446266782 342.86200509163336 385.9096045692466 350.18198130898975Q383.975464511815 357.50195752634625 380.3749884049039 364.0780337216137Q376.74475629710923 370.6838659177646 371.5374561424857 376.21848208210736Q366.3003999869787 381.7828542473336 359.81359179436197 385.8594263683817L359.81359179436197 385.8594263683817L376.44719628827363 425.07783553291756L344.5487633410942 425.07783553291756L331.4561229523265 394.8457386352177L297.89135395566757 395.0540306414026Z " fill="#f2f2f2" transform="matrix(0.775487822794964,0,0,0.775487822794964,0,28.518949211929794)"/><path d="M621.9681538553103 305.5937158030042L599.9119004642209 305.5937158030042L599.9119004642209 349.7062225851829L621.9681538553103 349.7062225851829Q626.4930740257321 349.7062225851829 630.4933657705976 347.95746116666237Q634.4936575154632 346.23055926587347 637.4884114446795 343.2358053366572Q640.4831653738956 340.24105140744086 642.2100672746847 336.2189001448438Q643.9369691754737 332.17488936451525 643.9369691754737 327.6499691940935L643.9369691754737 327.6499691940935Q643.9369691754737 323.10318950594035 642.2100672746847 319.0810382433433Q640.4831653738956 315.03702746301474 637.4884114446795 312.0422735337984Q634.4936575154632 309.04751960458213 630.4933657705976 307.32061770379323Q626.4930740257321 305.5937158030042 621.9681538553103 305.5937158030042L621.9681538553103 305.5937158030042ZM599.9119004642209 371.67503790534613L599.9119004642209 393.73129129643553L577.8556470731316 393.73129129643553L577.8556470731316 283.53746241191493L621.9681538553103 283.53746241191493Q628.0232402669374 283.53746241191493 633.6411363239345 285.11134768858335Q639.2590323809313 286.68523296525177 644.1337048350572 289.5706893058105Q649.008377289183 292.4342861286377 653.0523880695116 296.4782969089663Q657.0745393321085 300.52230768929485 659.9599956726674 305.4406991788837Q662.8454520132261 310.3590906684725 664.4193372898945 315.955127207738Q665.993222566563 321.57302326473496 665.993222566563 327.6499691940935L665.993222566563 327.6499691940935Q665.993222566563 333.333443804285 664.5723539140151 338.71088516623547Q663.1514852614672 344.0883265281859 660.506483615955 348.91927994684863Q657.8396224527113 353.772092883243 654.0142068496978 357.83796318130305Q650.1669317289527 361.92569299709464 645.4015568634845 364.9204469263109L645.4015568634845 364.9204469263109L657.6210272753963 393.73129129643553L634.187624267222 393.73129129643553L624.5694364653596 371.52202128122565L599.9119004642209 371.67503790534613ZM749.365423194526 326.18538150608265L710.0182912778156 373.59867546571866Q711.2642837885113 373.9702872671543 712.4884167814758 374.10144437354336Q713.7125497744402 374.2107419622008 714.9366827674045 374.2107419622008L714.9366827674045 374.2107419622008Q718.0188747675467 374.2107419622008 720.8606120726425 373.3582207706721Q723.7023493777382 372.52755909687494 726.1943343991298 370.9536738202065Q728.7081789382531 369.3797885435381 730.653676016357 367.10639869946147Q732.6210326121926 364.83300885538483 733.8451656051569 362.0787096212151L733.8451656051569 362.0787096212151L749.2124065704055 377.51152913965825Q746.3050907121152 381.6648375086444 742.5015346268332 384.9656246861017Q738.6979785415512 388.26641186355903 734.282355959787 390.5835207430987Q729.8448738602914 392.87877010490683 724.9702014061655 394.08104358013964Q720.0955289520397 395.2614575376409 714.9366827674045 395.2614575376409L714.9366827674045 395.2614575376409Q706.2584542279966 395.2614575376409 698.6076230219695 392.04810843110954Q690.9786513336741 388.81289980684676 685.2514576880195 383.0419871257292Q679.524264042365 377.2929339623432 676.2234768649076 369.33606950807507Q672.9008301697188 361.3792050538069 672.9008301697188 351.84845532287045L672.9008301697188 351.84845532287045Q672.9008301697188 342.07725089688734 676.2234768649076 334.0110888539617Q679.524264042365 325.9449268110361 685.2514576880195 320.2614522008446Q690.9786513336741 314.57797759065306 698.6076230219695 311.4302070373162Q706.2584542279966 308.2824364839794 714.9366827674045 308.2824364839794L714.9366827674045 308.2824364839794Q720.0955289520397 308.2824364839794 725.0139204416286 309.5065694769438Q729.9323119312174 310.7307024699081 734.3479345129816 313.04781134944767Q738.7635570947458 315.3430607112558 742.6108322154906 318.68756692417617Q746.4581073362357 322.03207313709663 749.365423194526 326.18538150608265L749.365423194526 326.18538150608265ZM696.3560926956244 362.7563546708918L720.7950335194479 330.3386898750688Q719.330445831437 329.79220193178116 717.9095771788892 329.63918530766057Q716.4887085263414 329.4861686835401 714.9366827674045 329.4861686835401L714.9366827674045 329.4861686835401Q710.6522172920294 329.4861686835401 706.8486612067474 331.0600539602084Q703.0451051214653 332.6339392368769 700.2252273341011 335.56311461289863Q697.4272090644682 338.47043047118893 695.8096047523369 342.58001980471204Q694.1920004402053 346.68960913823514 694.1920004402053 351.84845532287045L694.1920004402053 351.84845532287045Q694.1920004402053 353.0070097626402 694.3231575465944 354.4715974506512Q694.4324551352519 355.9143256209305 694.69476934803 357.4226323444044Q694.9570835608082 358.90907955014677 695.3505548799752 360.3080886849632Q695.7440261991422 361.6852383020481 696.3560926956244 362.7563546708918L696.3560926956244 362.7563546708918ZM831.2293170990152 327.8029858182141L831.2293170990152 327.8029858182141L815.840216616035 343.2358053366572Q814.7035216939968 340.02245623012584 812.6924460626982 337.44303313780813Q810.7032299491312 334.8636100454904 808.2112449277396 333.0929891092385Q805.6974003886163 331.32236817298656 802.790084530326 330.4042684282633Q799.8609091543043 329.4861686835401 796.8005766718935 329.4861686835401L796.8005766718935 329.4861686835401Q792.494251678787 329.4861686835401 788.6906955935048 331.256789619792Q784.887139508223 333.02741055604395 782.0672617208587 336.2189001448438Q779.2692434512259 339.38853021591217 777.6516391390945 343.78229327994484Q776.034034826963 348.154196826246 776.034034826963 353.4660596350019L776.034034826963 353.4660596350019Q776.034034826963 357.7723846281085 777.6516391390945 361.5322216779275Q779.2692434512259 365.2920587277465 782.0672617208587 368.13379603284227Q784.887139508223 370.97553333793803 788.6906955935048 372.5931376500695Q792.494251678787 374.2107419622008 796.8005766718935 374.2107419622008L796.8005766718935 374.2107419622008Q799.8609091543043 374.2107419622008 802.7026464594002 373.3582207706721Q805.5443837644958 372.52755909687494 808.0582283036191 370.9536738202065Q810.5502133250108 369.3797885435381 812.5175699208463 367.10639869946147Q814.4630669989502 364.83300885538483 815.6871999919146 362.0787096212151L815.6871999919146 362.0787096212151L831.0763004748945 377.51152913965825Q828.1471250988728 381.6648375086444 824.3435690135908 384.9656246861017Q820.5400129283088 388.26641186355903 816.1243903465446 390.5835207430987Q811.7087677647804 392.87877010490683 806.8122357929232 394.08104358013964Q801.9375633387973 395.2614575376409 796.8005766718935 395.2614575376409L796.8005766718935 395.2614575376409Q788.1004886147542 395.2614575376409 780.4715169264588 392.0043893956465Q772.8206857204317 388.7254617359207 767.0934920747771 383.0419871257292Q761.3662984291226 377.35851251553765 758.0655112516653 369.7514003449737Q754.764724074208 362.14428817440967 754.764724074208 353.4660596350019L754.764724074208 353.4660596350019Q754.764724074208 344.00088845725986 758.0655112516653 335.78170979021365Q761.3662984291226 327.56253112316756 767.0934920747771 321.4637256760774Q772.8206857204317 315.3430607112558 780.4715169264588 311.80181883875184Q788.1004886147542 308.2824364839794 796.8005766718935 308.2824364839794L796.8005766718935 308.2824364839794Q801.9375633387973 308.2824364839794 806.8996738638492 309.57214803013824Q811.8617843889011 310.8837190940286 816.3429855238597 313.37570411542026Q820.84604617655 315.88954865454343 824.6496022618318 319.49636908024195Q828.4531583471138 323.10318950594035 831.2293170990152 327.8029858182141ZM866.1826859516929 289.06792039798586L866.1826859516929 289.06792039798586Q866.1826859516929 291.97523625627616 865.067850547386 294.51094031313085Q863.9530151430794 297.0466443699855 862.0293775827068 298.92656289489497Q860.1057400223343 300.8283409375359 857.548176447748 301.9431763418428Q854.9687533554303 303.05801174614953 852.0395779794086 303.05801174614953L852.0395779794086 303.05801174614953Q849.1322621211183 303.05801174614953 846.5528390288006 301.9431763418428Q843.9734159364831 300.8283409375359 842.0934974115736 298.92656289489497Q840.2135788866641 297.0466443699855 839.0987434823572 294.51094031313085Q837.9839080780504 291.97523625627616 837.9839080780504 289.06792039798586L837.9839080780504 289.06792039798586Q837.9839080780504 286.2261830928901 839.0987434823572 283.6467600005724Q840.2135788866641 281.0673369082548 842.0934974115736 279.1874183833453Q843.9734159364831 277.3074998584358 846.5528390288006 276.19266445412893Q849.1322621211183 275.0778290498222 852.0395779794086 275.0778290498222L852.0395779794086 275.0778290498222Q854.9687533554303 275.0778290498222 857.548176447748 276.19266445412893Q860.1057400223343 277.3074998584358 862.0293775827068 279.1874183833453Q863.9530151430794 281.0673369082548 865.067850547386 283.6467600005724Q866.1826859516929 286.2261830928901 866.1826859516929 289.06792039798586ZM862.5758655259943 311.4302070373162L862.5758655259943 393.73129129643553L841.4377118796284 393.73129129643553L841.4377118796284 311.4302070373162L862.5758655259943 311.4302070373162ZM899.6933266340912 388.2008333103646L899.6933266340912 425.07783972341474L878.5551729877251 425.07783972341474L878.5551729877251 311.4302070373162L883.6265811014345 311.4302070373162L891.9987763926011 321.3325685696884Q894.8623732154284 318.64384788871314 898.2287389460804 316.26116045597905Q901.6169641944638 313.87847302324496 905.2675036556251 312.15157112245595Q908.9180431167866 310.42466922166705 912.8308967907261 309.41913140601775Q916.7437504646658 308.4354531081 920.7440422095314 308.4354531081L920.7440422095314 308.4354531081Q929.4441302666706 308.4354531081 937.0731019549661 311.5395046259738Q944.7239331609932 314.6435561438476 950.4511268066477 320.34889027177064Q956.1783204523023 326.03236488196217 959.4791076297596 334.05480788942475Q962.7798948072169 342.07725089688734 962.7798948072169 351.84845532287045L962.7798948072169 351.84845532287045Q962.7798948072169 361.9912715502892 959.4791076297596 370.1011526286778Q956.1783204523023 378.21103370706646 950.4511268066477 383.85078928179496Q944.7239331609932 389.51240437425486 937.0731019549661 392.5071583034712Q929.4441302666706 395.50191223268746 920.7440422095314 395.50191223268746L920.7440422095314 395.50191223268746Q917.9897429753615 395.50191223268746 915.2573032589233 394.8898457362053Q912.5248635424851 394.27777923972315 909.879861896973 393.22852238861094Q907.2348602514606 392.20112505523014 904.6554371591432 390.88955399133977Q902.0760140668255 389.5779829274494 899.6933266340912 388.2008333103646L899.6933266340912 388.2008333103646ZM941.7291792317768 351.84845532287045L941.7291792317768 351.84845532287045Q941.7291792317768 346.6240305850406 940.0678558841824 342.47072221605447Q938.4283920543195 338.31741384706834 935.5866547492238 335.43195750650966Q932.744917444128 332.5683606836824 928.8976423233829 331.0163349247455Q925.0503672026379 329.4861686835401 920.7440422095314 329.4861686835401L920.7440422095314 329.4861686835401Q916.4377172164246 329.4861686835401 912.6341611311426 331.0163349247455Q908.8306050458606 332.5683606836824 905.9888677407649 335.43195750650966Q903.1471304356693 338.31741384706834 901.5076666058063 342.47072221605447Q899.8463432582117 346.6240305850406 899.8463432582117 351.84845532287045L899.8463432582117 351.84845532287045Q899.8463432582117 356.83242536565376 901.5076666058063 360.9857337346399Q903.1471304356693 365.1390421036259 905.9888677407649 368.0682174796477Q908.8306050458606 370.97553333793803 912.6341611311426 372.5931376500695Q916.4377172164246 374.2107419622008 920.7440422095314 374.2107419622008L920.7440422095314 374.2107419622008Q925.0503672026379 374.2107419622008 928.8976423233829 372.5931376500695Q932.744917444128 370.97553333793803 935.5866547492238 368.0682174796477Q938.4283920543195 365.1390421036259 940.0678558841824 360.9857337346399Q941.7291792317768 356.83242536565376 941.7291792317768 351.84845532287045ZM1046.4799882011525 326.18538150608265L1007.132856284442 373.59867546571866Q1008.3569892774063 373.9702872671543 1009.5811222703709 374.10144437354336Q1010.8271147810666 374.2107419622008 1012.0512477740309 374.2107419622008L1012.0512477740309 374.2107419622008Q1015.1115802564417 374.2107419622008 1017.975177079269 373.3582207706721Q1020.8169143843646 372.52755909687494 1023.3088994057563 370.9536738202065Q1025.800884427148 369.3797885435381 1027.7682410229836 367.10639869946147Q1029.7137381010875 364.83300885538483 1030.9597306117835 362.0787096212151L1030.9597306117835 362.0787096212151L1046.326971577032 377.51152913965825Q1043.3977962010104 381.6648375086444 1039.594240115728 384.9656246861017Q1035.7906840304463 388.26641186355903 1031.3750614486821 390.5835207430987Q1026.959438866918 392.87877010490683 1022.0847664127922 394.08104358013964Q1017.1882344409347 395.2614575376409 1012.0512477740309 395.2614575376409L1012.0512477740309 395.2614575376409Q1003.373019234623 395.2614575376409 995.7221880285962 392.04810843110954Q988.0713568225691 388.81289980684676 982.3441631769145 383.0419871257292Q976.61696953126 377.2929339623432 973.3161823538027 369.33606950807507Q970.0153951763454 361.3792050538069 970.0153951763454 351.84845532287045L970.0153951763454 351.84845532287045Q970.0153951763454 342.07725089688734 973.3161823538027 334.0110888539617Q976.61696953126 325.9449268110361 982.3441631769145 320.2614522008446Q988.0713568225691 314.57797759065306 995.7221880285962 311.4302070373162Q1003.373019234623 308.2824364839794 1012.0512477740309 308.2824364839794L1012.0512477740309 308.2824364839794Q1017.1882344409347 308.2824364839794 1022.1066259305236 309.5065694769438Q1027.0250174201124 310.7307024699081 1031.4624995196082 313.04781134944767Q1035.8781221013724 315.3430607112558 1039.7035377043858 318.68756692417617Q1043.5508128251308 322.03207313709663 1046.4799882011525 326.18538150608265L1046.4799882011525 326.18538150608265ZM993.4487981845197 362.7563546708918L1017.8877390083429 330.3386898750688Q1016.4231513203321 329.79220193178116 1015.0022826677842 329.63918530766057Q1013.5814140152364 329.4861686835401 1012.0512477740309 329.4861686835401L1012.0512477740309 329.4861686835401Q1007.7449227809242 329.4861686835401 1003.9413666956422 331.0600539602084Q1000.1378106103604 332.6339392368769 997.3397923407275 335.56311461289863Q994.5199145533633 338.47043047118893 992.9023102412319 342.58001980471204Q991.306565446832 346.68960913823514 991.306565446832 351.84845532287045L991.306565446832 351.84845532287045Q991.306565446832 353.0070097626402 991.4158630354895 354.4715974506512Q991.5251606241469 355.9143256209305 991.7874748369251 357.4226323444044Q992.0716485674346 358.90907955014677 992.4432603688703 360.3080886849632Q992.8367316880373 361.6852383020481 993.4487981845197 362.7563546708918L993.4487981845197 362.7563546708918ZM1102.1998988987607 393.73129129643553L1102.1998988987607 393.73129129643553L1054.240116995837 393.73129129643553L1054.240116995837 372.833592345116L1102.1998988987607 372.833592345116Q1104.3421316364484 372.833592345116 1105.8722978776536 371.2815665861791Q1107.4243236365905 369.7514003449737 1107.4243236365905 367.60916760728617L1107.4243236365905 367.60916760728617Q1107.4243236365905 365.37949679867256 1105.8722978776536 364.67999223126435Q1104.3421316364484 363.98048766385614 1102.1998988987607 363.98048766385614L1102.1998988987607 363.98048766385614L1080.3622406849863 363.98048766385614Q1074.9192207698416 363.98048766385614 1070.1538459043732 361.92569299709464Q1065.3884710389052 359.8490388126015 1061.8472291664011 356.26407790463463Q1058.305987293897 352.70097651439914 1056.273052144867 347.93560164893086Q1054.240116995837 343.1702267834627 1054.240116995837 337.7053473505862L1054.240116995837 337.7053473505862Q1054.240116995837 332.2404679177098 1056.273052144867 327.496952569973Q1058.305987293897 322.73157770450473 1061.8472291664011 319.19033583200087Q1065.3884710389052 315.6490939594969 1070.1538459043732 313.6161588104668Q1074.9192207698416 311.5832236614368 1080.3622406849863 311.5832236614368L1080.3622406849863 311.5832236614368L1122.8571431550336 311.5832236614368L1122.8571431550336 332.48092261275633L1080.3622406849863 332.48092261275633Q1078.220007947299 332.48092261275633 1076.6898417060934 334.0110888539617Q1075.1378159471565 335.56311461289863 1075.1378159471565 337.7053473505862L1075.1378159471565 337.7053473505862Q1075.1378159471565 339.9350181591998 1076.6898417060934 341.5089034358682Q1078.220007947299 343.0827887125366 1080.3622406849863 343.0827887125366L1080.3622406849863 343.0827887125366L1102.1998988987607 343.0827887125366Q1107.577340260711 343.0827887125366 1112.3427151261794 344.8971286842516Q1117.1080899916478 346.68960913823514 1120.6274723464203 349.9248177624979Q1124.168714218924 353.1600263867608 1126.2453684034172 357.68494655718246Q1128.32202258791 362.2317262453357 1128.32202258791 367.60916760728617L1128.32202258791 367.60916760728617Q1128.32202258791 373.05218752243104 1126.2453684034172 377.7957028701678Q1124.168714218924 382.5173587001731 1120.6274723464203 386.08046009040845Q1117.1080899916478 389.66542099837545 1112.3427151261794 391.69835614740543Q1107.577340260711 393.73129129643553 1102.1998988987607 393.73129129643553Z " fill="#d64b21" transform="matrix(0.775487822794964,0,0,0.775487822794964,0,28.518949211929794)"/></g></svg>